<?xml version="1.0" encoding="UTF-8" standalone="no"?>
<!-- Created with Inkscape (http://www.inkscape.org/) by Toomai Glittershine for SmashWiki -->
<svg id="svg2" xmlns:rdf="http://www.w3.org/1999/02/22-rdf-syntax-ns#" xmlns="http://www.w3.org/2000/svg" version="1.1" xmlns:cc="http://creativecommons.org/ns#" xmlns:dc="http://purl.org/dc/elements/1.1/"
		height="256" width="256"
		viewBox="0 0 256 256">
	<defs id="defs4">
		<filter id="filter3856" x="-0.11088921" y="-0.13074192" width="1.2217784" height="1.2614838">
			<feGaussianBlur id="feGaussianBlur3858" stdDeviation="6.9533634" />
		</filter>
		<mask id="mask3773" maskUnits="userSpaceOnUse">
			<g id="g3775">
				<rect id="rect3777" x="0" y="0" width="256" height="256" style="opacity:0.5;fill:#ffffff;fill-opacity:1;stroke:none" />
			<path id="path3779" style="fill:#ffffff;stroke:none;filter:url(#filter3856)"
				d="m 103.5,153.125 c -6.740905,1.1735 -12.946903,3.01182 -18.21875,5.71875 -3.158092,24.50617 2.203985,45.09838 14.71875,40.03125 10.60537,-4.29403 -5.129228,-26.1821 3.5,-45.75 z M 97.75,73.96875 c -10.174419,-11.121693 -43.988562,27.44264 -45.3125,55.0625 -1.201989,25.07577 22.9375,37.28125 22.9375,37.28125 3.286749,-3.70913 7.588739,-6.57593 12.59375,-8.75 0,0 -11.140438,-10.55151 -9.5,-27.03125 C 80.441841,110.7097 106.4094,83.434367 97.75,73.96875 z m 82.68938,79.26054 c 3.26993,1.93319 22.16468,-12.20484 22.44417,-16.93157 0.27949,-4.72673 -15.29292,-20.76458 -20.86914,-17.81753 -5.57622,2.94705 -4.84496,32.81591 -1.57503,34.7491 z M 0,0 256,0 256,256 0,256 z"
			/>
			</g>
		</mask>
	</defs>
	<metadata id="metadata7">
		<rdf:RDF>
			<cc:Work rdf:about="">
				<dc:format>image/svg+xml</dc:format>
				<dc:type rdf:resource="http://purl.org/dc/dcmitype/StillImage"/>
				<dc:title/>
			</cc:Work>
		</rdf:RDF>
	</metadata>
	<g id="g3769" mask="url(#mask3773)" style="opacity:0.5">
		<path id="path3809-1" style="opacity:0.375;fill:#000000;fill-opacity:1;stroke:none"
			d="m 128,151.28125 c -30.178442,0 -59.65625,6.33371 -59.65625,35.09375 0,16.2229 12.620231,24.5625 59.65625,24.5625 47.03602,0 59.65625,-8.3396 59.65625,-24.5625 0,-28.76004 -29.47781,-35.09375 -59.65625,-35.09375 z m -14.625,5.875 c 3.24628,0 5.875,6.0375 5.875,13.46875 0,7.43125 -2.62872,13.46875 -5.875,13.46875 -3.24628,0 -5.875,-6.0375 -5.875,-13.46875 0,-7.43125 2.62872,-13.46875 5.875,-13.46875 z m 29.25,0 c 3.24629,0 5.875,6.0375 5.875,13.46875 0,7.43125 -2.62871,13.46875 -5.875,13.46875 -3.24628,0 -5.875,-6.0375 -5.875,-13.46875 0,-7.43125 2.62872,-13.46875 5.875,-13.46875 z"
		/>
		<path id="path3809" style="opacity:1;fill:#000000;fill-opacity:1;stroke:none"
			d="m 107.49413,170.62545 c 0,7.43125 2.63164,13.45547 5.87792,13.45547 3.24628,0 5.87792,-6.02422 5.87792,-13.45547 0,-7.43125 -2.63164,-13.45546 -5.87792,-13.45546 -3.24628,0 -5.87792,6.02421 -5.87792,13.45546 z m 41.01174,0 c 0,7.43125 -2.63163,13.45547 -5.87792,13.45547 -3.24628,0 -5.87791,-6.02422 -5.87791,-13.45547 0,-7.43125 2.63163,-13.45546 5.87791,-13.45546 3.24629,0 5.87792,6.02421 5.87792,13.45546 z M 128,37.546875 c -65.677164,0 -96.687502,58.367412 -96.687502,96.687495 0,22.10509 5.565867,37.79913 30.687499,42.53125 -0.745258,3.00942 -1.156241,6.21908 -1.156241,9.625 0,10.05522 5.597694,20.18171 16.59375,25.1875 10.996045,5.00579 26.601374,6.875 50.562494,6.875 23.96112,0 39.56645,-1.86921 50.5625,-6.875 10.99605,-5.00579 16.59375,-15.13228 16.59375,-25.1875 0,-3.40592 -0.41098,-6.61558 -1.15625,-9.625 25.12164,-4.73213 30.6875,-20.42616 30.6875,-42.53125 0,-38.320083 -31.01033,-96.687495 -96.6875,-96.687495 z m 0,113.749995 c 30.17844,0 59.65625,6.33371 59.65625,35.09375 0,16.2229 -12.62023,24.5625 -59.65625,24.5625 -47.036019,0 -59.656251,-8.3396 -59.656251,-24.5625 0,-28.76004 29.477809,-35.09375 59.656251,-35.09375 z"
		/>
	</g>
</svg>